<svg xmlns="http://www.w3.org/2000/svg" version="1.1" xmlns:xlink="http://www.w3.org/1999/xlink" xmlns:svgjs="http://svgjs.dev/svgjs" width="2000" height="2297" viewBox="0 0 2000 2297"><g transform="matrix(1,0,0,1,1.61146685563358,0.9299595141699228)"><svg viewBox="0 0 215 247" data-background-color="#ffffff" preserveAspectRatio="xMidYMid meet" height="2297" width="2000" xmlns="http://www.w3.org/2000/svg" xmlns:xlink="http://www.w3.org/1999/xlink"><g id="tight-bounds" transform="matrix(1,0,0,1,-0.17323268698061156,-0.09999999999999432)"><svg viewBox="0 0 215.34646537396122 247.2" height="247.2" width="215.34646537396122"><g><svg viewBox="0 0 215.34646537396122 247.2" height="247.2" width="215.34646537396122"><g><svg viewBox="0 0 215.34646537396122 247.2" height="247.2" width="215.34646537396122"><g id="textblocktransform"><svg viewBox="0 0 215.34646537396122 247.2" height="247.2" width="215.34646537396122" id="textblock"><g><svg viewBox="0 0 215.34646537396122 247.2" height="247.2" width="215.34646537396122"><rect width="215.34646537396122" height="247.2" x="0" y="0" opacity="1" fill="#000000" data-fill-palette-color="tertiary"></rect><g transform="matrix(1,0,0,1,23.607599999999998,23.607599999999998)"><svg width="168.13126537396124" viewBox="2.2 -35.5 30.349999999999998 36.1" height="199.9848" data-palette-color="#ffffff"><path d="M3.5 0.25L3.5 0.25Q2.55 0.25 2.2 0.2L2.2 0.2Q2.55-2.7 5.28-14.53 8-26.35 8-29.5L8-29.5Q8-30.1 7.3-31.08 6.6-32.05 5.9-32.7L5.9-32.7 5.25-33.4 5.4-34.2Q12.25-35.5 19.9-35.5L19.9-35.5Q29.1-35.5 29.1-28.25L29.1-28.25Q29.1-24.7 27.33-21.78 25.55-18.85 21.8-17.2L21.8-17.2Q24.6-7.85 26.6-5.1L26.6-5.1Q27.5-3.95 28-3.95L28-3.95Q28.9-3.95 30.8-4.85L30.8-4.85 31.4-5.15 32.55-3.3Q30.7-1.6 28.28-0.5 25.85 0.6 23.73 0.6 21.6 0.6 20.23-1.23 18.85-3.05 17.73-6.6 16.6-10.15 15.45-15.7L15.45-15.7Q13.85-15.6 13-15.6L13-15.6Q10.45-4.65 10.2-0.8L10.2-0.8Q8.05 0.25 3.5 0.25ZM13.75-19L14.95-19Q17.95-19 19.68-21.68 21.4-24.35 21.4-28.05L21.4-28.05Q21.4-30 20.7-31.2 20-32.4 18.6-32.4L18.6-32.4Q18-32.4 17.18-32.23 16.35-32.05 16.35-32L16.35-32Q15.55-26.85 13.75-19L13.75-19Z" opacity="1" transform="matrix(1,0,0,1,0,0)" fill="#ffffff" class="wordmark-text-0" data-fill-palette-color="quaternary" id="text-0"></path></svg></g></svg></g></svg></g></svg></g></svg></g><defs></defs></svg><rect width="215.34646537396122" height="247.2" fill="none" stroke="none" visibility="hidden"></rect></g></svg></g></svg>